<svg id="Calque_1" data-name="Calque 1" xmlns="http://www.w3.org/2000/svg" viewBox="0 0 512 490.67">
<defs><style>.cls-1{fill:#ffc107;}</style></defs>
<path fill="#fff" d="M288,389.67a69.44,69.44,0,0,1,42.67-64v-5.34A84.28,84.28,0,0,1,339,284.17,100.89,100.89,0,0,0,282.67,267H176A176,176,0,0,0,0,443H0a16,16,0,0,0,16,16H288Z" transform="translate(0 -11)"/>
<path fill="#fff" d="M298.66,116.74a106.67,106.67,0,0,1-107.6,107.59c-57.91-.5-105.23-47.82-105.72-105.74A106.67,106.67,0,0,1,192.93,11C250.85,11.5,298.17,58.83,298.66,116.74Z" transform="translate(0 -11)"/>
<path class="cls-1" d="M474.67,352.33H357.33A37.38,37.38,0,0,0,320,389.67v74.66a37.38,37.38,0,0,0,37.33,37.34H474.67A37.38,37.38,0,0,0,512,464.33V389.67A37.38,37.38,0,0,0,474.67,352.33Z" transform="translate(0 -11)"/>
<path fill="#fff" d="M416,267a53.39,53.39,0,0,0-53.33,53.33v32h32v-32a21.33,21.33,0,1,1,42.66,0v32h32v-32A53.39,53.39,0,0,0,416,267Z" transform="translate(0 -11)"/>
</svg>
